<svg width="26" height="24" viewBox="0 0 26 24" fill="none" xmlns="http://www.w3.org/2000/svg">
<path fill-rule="evenodd" clip-rule="evenodd" d="M17.6108 0.000198088C18.3936 0.000198088 19.1752 0.110611 19.9183 0.359969C24.4973 1.84868 26.1473 6.87307 24.769 11.2648C23.9874 13.509 22.7096 15.5572 21.036 17.2308C18.6405 19.5507 16.0117 21.6101 13.1819 23.3841L12.8717 23.5714L12.5492 23.3717C9.70945 21.6101 7.06575 19.5507 4.64784 17.2184C2.98545 15.5448 1.7064 13.509 0.912424 11.2648C-0.489443 6.87307 1.16054 1.84868 5.78919 0.333917C6.14896 0.209858 6.51989 0.123017 6.89207 0.0746335H7.04094C7.38955 0.0237693 7.73567 0.000198088 8.08304 0.000198088H8.2195C9.00108 0.0237693 9.75784 0.160234 10.491 0.409593H10.5642C10.6138 0.433164 10.6511 0.459217 10.6759 0.482788C10.95 0.57087 11.2093 0.670117 11.4574 0.806582L11.9289 1.01748C12.0428 1.07824 12.1706 1.17107 12.2811 1.2513C12.3512 1.30213 12.4142 1.3479 12.4623 1.37725C12.4826 1.3892 12.5031 1.40121 12.5239 1.41331C12.6303 1.47541 12.7411 1.54009 12.8345 1.61173C14.2128 0.558464 15.8864 -0.0122078 17.6108 0.000198088ZM20.9053 8.93188C21.4139 8.91823 21.8481 8.51008 21.8853 7.98779V7.84016C21.9225 6.10209 20.8693 4.52778 19.2677 3.91989C18.759 3.74497 18.2008 4.01914 18.0147 4.54018C17.841 5.06123 18.1139 5.63191 18.635 5.81675C19.4302 6.1145 19.9624 6.89731 19.9624 7.76448V7.80294C19.9388 8.08704 20.0244 8.36121 20.1981 8.57211C20.3718 8.78301 20.6323 8.90583 20.9053 8.93188Z" fill="#EC5655"/>
</svg>
