<svg width="33" height="24" viewBox="0 0 33 24" fill="none" xmlns="http://www.w3.org/2000/svg">
<path d="M16.4999 16.3332C18.5249 16.3332 20.1666 17.9748 20.1666 19.9999C20.1666 22.0249 18.5249 23.6666 16.4999 23.6666C14.4749 23.6666 12.8332 22.0249 12.8332 19.9999C12.8332 17.9748 14.4749 16.3332 16.4999 16.3332ZM16.4999 18.3332C15.5794 18.3332 14.8332 19.0794 14.8332 19.9999C14.8332 20.9204 15.5794 21.6666 16.4999 21.6666C17.4204 21.6666 18.1666 20.9204 18.1666 19.9999C18.1666 19.0794 17.4204 18.3332 16.4999 18.3332ZM16.5 11C20.0168 11 23.0625 13.0171 24.5432 15.9575L23.0289 17.4702C22.0147 14.8545 19.4739 13 16.5 13C13.5261 13 10.9853 14.8545 9.97109 17.4702L8.45727 15.9565C9.93818 13.0167 12.9836 11 16.5 11ZM16.5001 5.66679C21.4806 5.66679 25.8677 8.207 28.4367 12.0625L26.9896 13.5099C24.8149 10.0026 20.9303 7.66679 16.5001 7.66679C12.0699 7.66679 8.18528 10.0026 6.0106 13.5099L4.56351 12.0625C7.13246 8.207 11.5196 5.66679 16.5001 5.66679ZM16.4999 0.333191C22.951 0.333191 28.6766 3.43923 32.2628 8.2374L30.8323 9.66839C27.6237 5.22496 22.3995 2.33319 16.4999 2.33319C10.6008 2.33319 5.37691 5.22453 2.1682 9.66738L0.737728 8.2364C4.32403 3.4388 10.0493 0.333191 16.4999 0.333191Z" fill="#B8B8B8"/>
</svg>
